<svg width="399" height="400" viewBox="0 0 399 400" fill="none" xmlns="http://www.w3.org/2000/svg">
<path d="M25.6786 398.323L21.2627 398.063L16.5867 396.504L12.1706 394.425L8.27369 391.047L4.89663 387.149L2.55864 382.732L1.26004 378.054L1 373.637V25.6865L1.26004 21.2687L2.55864 16.5915L4.89663 12.1739L8.27369 8.27603L12.1706 4.89788L16.5867 2.81902L18.9247 1.77932L21.2627 1.51972L23.6006 1H375.595L377.933 1.51972L380.271 1.77932L382.609 2.81902L387.025 4.89788L390.922 8.27603L394.299 12.1739L396.377 16.5915L397.156 18.9302L398.195 23.6077V375.715L397.156 380.393L396.377 382.732L394.299 387.149L390.922 391.047L387.025 394.425L382.609 396.504L377.933 398.063L373.517 398.323H25.6786Z" fill="#EC641A" stroke="black" stroke-width="1.5"/>
<path d="M25.9381 392.086V381.952H374.295L375.335 381.692L378.452 380.133L380.011 378.574L381.05 376.495L381.31 375.715L381.569 375.196V24.9069L381.05 22.8281L380.011 20.7495L378.452 19.1901L376.374 18.1506L374.295 17.6309H24.1197L23.3401 17.891L22.8206 18.1506L22.0415 18.4102L20.4826 19.4499L19.9631 19.9696L19.184 20.4893L18.6645 21.2687L18.1449 22.8281L17.6251 24.9069V375.196L17.8851 375.715L18.6645 378.054L19.184 378.834L19.9631 379.353L20.4826 379.873L22.0415 380.913L22.8206 381.172L23.6002 381.692L24.6393 381.952H25.6781V392.086L22.3013 391.827L18.9242 390.787L15.5472 389.228L12.4299 386.63L10.0919 383.771L8.533 380.393L7.49415 377.015L7.23438 373.636V25.6865L7.49415 22.3083L8.533 18.9302L10.0919 15.5518L12.4299 12.6933L15.5472 10.095L18.9242 8.53587L22.3013 7.49617L25.6781 7.23657H373.516L376.893 7.49617L380.271 8.53587L383.648 10.095L386.505 12.6933L388.843 15.5518L390.662 18.9302L391.701 22.3083L391.96 25.6865V373.636L391.701 377.015L390.662 380.393L388.843 383.771L386.505 386.63L383.648 389.228L380.271 390.787L376.893 391.827L373.516 392.086H25.9381Z" fill="black"/>
<path d="M187.556 161.84C187.556 176.72 181.476 189.28 169.316 199.52C157.156 209.76 142.036 214.88 123.956 214.88C97.8763 214.56 76.2763 205.2 59.1563 186.8L80.7563 165.2C93.0763 178.16 108.036 184.96 125.636 185.6C135.556 185.6 143.556 183.52 149.636 179.36C155.876 175.2 158.996 169.76 158.996 163.04C158.676 155.2 155.796 149.28 150.356 145.28C144.916 141.28 138.996 139.12 132.596 138.8H122.756V110H131.636C136.436 110 140.836 108.48 144.836 105.44C148.996 102.4 151.076 98.64 151.076 94.16C151.076 89.2 148.436 85.12 143.156 81.92C137.876 78.72 131.076 77.12 122.756 77.12C108.996 77.12 96.8363 81.6 86.2763 90.56L66.8363 71.12C82.1963 56.08 101.396 48.56 124.436 48.56C140.596 48.56 153.956 52.8 164.516 61.28C175.076 69.76 180.356 80.56 180.356 93.68C180.356 107.28 175.876 117.28 166.916 123.68C180.836 132.64 187.716 145.36 187.556 161.84ZM340.38 156.8C340.38 173.6 334.06 187.52 321.42 198.56C308.78 209.44 292.54 214.88 272.7 214.88C251.1 214.88 230.46 208.88 210.78 196.88L225.9 172.64C240.78 181.12 256.38 185.52 272.7 185.84C285.02 186 294.78 183.28 301.98 177.68C309.18 171.92 312.78 164.88 312.78 156.56C313.1 147.76 309.82 140.72 302.94 135.44C296.06 130 287.18 127.2 276.3 127.04C264.78 127.2 253.26 129.68 241.74 134.48L216.78 127.28L220.86 51.2H328.14V79.76H247.74L246.3 103.28C255.9 100.4 266.22 98.88 277.26 98.72C295.66 98.72 310.78 104.24 322.62 115.28C334.46 126.16 340.38 140 340.38 156.8Z" fill="black"/>
<path d="M111.875 351H97.4753L85.9553 323.04L78.0353 333.84V351H63.6353V276.6L78.0353 269.28V312.6L93.5153 292.68H111.275L95.7953 311.28L111.875 351ZM204.828 351H190.428V316.08C190.428 312.8 189.508 310.2 187.668 308.28C185.908 306.28 183.468 305.28 180.348 305.28C177.548 305.28 175.148 306.32 173.148 308.4C171.148 310.4 170.148 312.76 170.148 315.48V351H156.348V316.08C156.348 312.96 155.308 310.4 153.228 308.4C151.148 306.32 148.628 305.28 145.668 305.28C142.868 305.28 140.548 306.28 138.708 308.28C136.948 310.28 136.068 312.76 136.068 315.72V351H121.668V292.32H136.068V297.12C139.108 293.68 143.828 291.92 150.228 291.84C156.628 292.08 161.628 294.8 165.228 300C168.828 294.64 174.348 291.92 181.788 291.84C189.148 292 194.828 294.52 198.828 299.4C202.828 304.28 204.828 309.6 204.828 315.36V351ZM279.367 270.6L223.927 351H210.367L265.207 270.6H279.367ZM284.431 276L297.991 269.28V297.24C301.591 293.64 306.351 291.84 312.271 291.84C318.591 291.84 323.711 294.04 327.631 298.44C331.631 302.76 333.671 308.4 333.751 315.36V351H319.351V316.08C319.351 312.96 318.391 310.4 316.471 308.4C314.631 306.4 312.111 305.4 308.911 305.4C306.031 305.4 303.471 306.48 301.231 308.64C299.071 310.72 297.991 313.12 297.991 315.84V351H284.431V276Z" fill="black"/>
</svg>
