<svg width="401" height="481" viewBox="0 0 401 481" fill="none" xmlns="http://www.w3.org/2000/svg">
<path d="M399.524 454.321C399.524 468.077 388.373 479.229 374.616 479.229H25.9077C12.1515 479.229 1 468.077 1 454.321V25.9078C1 12.1516 12.1515 1 25.9077 1H374.616C388.373 1 399.524 12.1516 399.524 25.9078V454.321Z" fill="white" stroke="white" stroke-width="2"/>
<path d="M24.7057 469.745C17.297 469.745 11.2617 463.71 11.2617 456.301V23.7064C11.2617 16.2978 17.2971 10.2625 24.7057 10.2625H376.818C384.227 10.2625 390.262 16.2978 390.262 23.7064V456.301C390.262 463.71 384.227 469.745 376.818 469.745H24.7057Z" stroke="black" stroke-width="10"/>
<path d="M115.341 135H73.3411V78.72H83.5891V124.92H115.341V135ZM143.778 135H133.698V78.72H143.778V135ZM186.023 106.944H207.359V114.252C207.359 120.356 205.175 125.508 200.807 129.708C196.495 133.908 191.231 136.008 185.015 136.008C177.287 136.008 171.323 132.956 167.123 126.852C163.539 121.588 161.747 114.896 161.747 106.776C161.747 98.152 163.875 91.18 168.131 85.86C172.387 80.484 178.015 77.796 185.015 77.796C194.703 77.796 201.731 81.688 206.099 89.472L196.691 94.176C193.723 89.92 189.831 87.792 185.015 87.792C181.095 87.792 177.903 89.584 175.439 93.168C173.031 96.696 171.827 101.232 171.827 106.776C171.827 112.152 172.723 116.464 174.515 119.712C176.755 123.856 180.255 125.928 185.015 125.928C187.759 125.928 190.251 125.088 192.491 123.408C194.731 121.728 196.187 119.6 196.859 117.024H186.023V106.944ZM268.999 135H260.347L233.467 97.032V135H223.639V78.72H233.467L259.339 116.268V78.72H268.999V135ZM327.782 135H285.782V78.72H326.858V88.8H296.03V99.3H312.83V109.548H296.03V124.92H327.782V135Z" fill="black"/>
<path d="M72.2399 235.776C72.2399 247.312 67.7039 255.6 58.6319 260.64C54.5439 262.88 50.1199 264 45.3599 264H27.2159V207.72H45.3599C50.1759 207.72 54.6559 208.924 58.7999 211.332C67.7599 216.428 72.2399 224.576 72.2399 235.776ZM62.1599 235.776C62.1599 228.328 59.3879 223.064 53.8439 219.984C51.2679 218.528 48.4399 217.8 45.3599 217.8H37.4639V253.92H45.3599C48.1039 253.92 50.7919 253.192 53.4239 251.736C59.2479 248.6 62.1599 243.28 62.1599 235.776ZM159.07 264H148.15L142.69 250.812H118.162L112.618 264H101.614L125.302 207.72H135.55L159.07 264ZM138.322 240.732L130.426 221.748L122.53 240.732H138.322ZM212.187 264H200.931L191.859 241.908H176.907V264H166.827V207.72H192.699C196.395 207.72 199.615 208.504 202.359 210.072C208.127 213.432 211.011 218.388 211.011 224.94C211.011 231.604 207.987 236.588 201.939 239.892L212.187 264ZM200.931 224.94C200.931 222.756 200.203 221.02 198.747 219.732C197.291 218.444 195.331 217.8 192.867 217.8H176.907V231.828H192.867C195.331 231.828 197.291 231.212 198.747 229.98C200.203 228.692 200.931 227.012 200.931 224.94ZM268.871 264H257.615L248.543 241.908H233.591V264H223.511V207.72H249.383C253.079 207.72 256.299 208.504 259.043 210.072C264.811 213.432 267.695 218.388 267.695 224.94C267.695 231.604 264.671 236.588 258.623 239.892L268.871 264ZM257.615 224.94C257.615 222.756 256.887 221.02 255.431 219.732C253.975 218.444 252.015 217.8 249.551 217.8H233.591V231.828H249.551C252.015 231.828 253.975 231.212 255.431 229.98C256.887 228.692 257.615 227.012 257.615 224.94ZM307.914 205.2L301.614 198.9L295.314 205.2H288.762L296.91 193.692H306.318L314.55 205.2H307.914ZM322.698 264H280.698V207.72H321.774V217.8H290.946V228.3H307.746V238.548H290.946V253.92H322.698V264ZM374.823 217.632H358.611V264H348.783V217.632H332.571V207.72H374.823V217.632Z" fill="black"/>
<path d="M86.3846 208H95L89.5 220H83L86.3846 208Z" fill="black"/>
<path d="M83.6646 358.784C84.1432 357.676 84.945 356.695 86.0375 355.997C88.9456 354.138 92.8118 354.991 94.6684 357.899C95.0397 358.48 95.3016 359.101 95.4621 359.736L101.065 379.78L209.153 310.74L227.095 338.833L119.008 407.871L134.837 421.384C135.344 421.796 135.798 422.293 136.169 422.876C138.028 425.784 137.175 429.651 134.267 431.507C133.174 432.205 131.946 432.52 130.74 432.488L49.5709 432.445L83.6646 358.784Z" fill="black"/>
</svg>
