<svg width="400" height="400" viewBox="0 0 400 400" fill="none" xmlns="http://www.w3.org/2000/svg">
<path d="M394.663 187.041L212.952 5.34149C205.819 -1.7805 194.169 -1.7805 187.041 5.34149L5.34149 187.041C-1.7805 194.163 -1.7805 205.819 5.34149 212.952L187.041 394.646C194.169 401.768 205.819 401.768 212.952 394.646L394.663 212.952C401.779 205.819 401.779 194.163 394.663 187.041Z" fill="#EC641A"/>
<path fill-rule="evenodd" clip-rule="evenodd" d="M391.202 190.499L209.491 8.80514C204.269 3.5831 195.72 3.5831 190.503 8.80514L8.80325 190.499C3.58121 195.722 3.58121 204.266 8.80325 209.488L190.503 391.188C195.72 396.41 204.269 396.41 209.491 391.188L391.202 209.488C396.419 204.266 396.419 195.722 391.202 190.499Z" fill="black"/>
<path fill-rule="evenodd" clip-rule="evenodd" d="M386.003 195.689L204.303 13.9889C201.936 11.6279 198.064 11.6279 195.686 13.9889L13.9976 195.689C11.631 198.055 11.631 201.933 13.9976 204.294L195.686 385.988C198.064 388.361 201.936 388.361 204.303 385.988L386.003 204.294C388.38 201.933 388.38 198.055 386.003 195.689Z" fill="#EC641A"/>
<path d="M170.723 321H142.041L142.708 126.63C142.708 126.63 127.366 130.832 123.964 131.699C120.563 132.566 114.36 128.697 118.228 123.628C122.097 118.559 156.849 71 156.849 71C156.849 71 192.268 120.626 194.336 123.628C196.403 126.63 195.269 133.5 190 132.099C184.731 130.699 170.723 126.63 170.723 126.63C170.723 126.63 165.787 174.255 198.671 199.469C231.555 224.682 232.637 222.588 246.097 243.217C258.629 262.426 259.304 284.781 259.304 284.781V321H231.422C231.422 321 232.222 279.244 226.753 267.572C221.283 255.899 214.346 244.426 206.009 238.489C197.671 232.553 192.517 230.32 184.664 224.015C178.94 219.42 170.723 211.408 170.723 211.408V321Z" fill="black" stroke="black" stroke-width="2"/>
</svg>
