<svg width="400" height="400" viewBox="0 0 400 400" fill="none" xmlns="http://www.w3.org/2000/svg">
<path d="M394.663 187.041L212.952 5.34149C205.819 -1.7805 194.169 -1.7805 187.041 5.34149L5.34149 187.041C-1.7805 194.163 -1.7805 205.819 5.34149 212.952L187.041 394.646C194.169 401.768 205.819 401.768 212.952 394.646L394.663 212.952C401.779 205.819 401.779 194.163 394.663 187.041Z" fill="#EC641A"/>
<path fill-rule="evenodd" clip-rule="evenodd" d="M391.202 190.499L209.491 8.80514C204.269 3.5831 195.72 3.5831 190.503 8.80514L8.80325 190.499C3.58121 195.722 3.58121 204.266 8.80325 209.488L190.503 391.188C195.72 396.41 204.269 396.41 209.491 391.188L391.202 209.488C396.419 204.266 396.419 195.722 391.202 190.499Z" fill="black"/>
<path fill-rule="evenodd" clip-rule="evenodd" d="M386.003 195.689L204.303 13.9889C201.936 11.6279 198.064 11.6279 195.686 13.9889L13.9976 195.689C11.631 198.055 11.631 201.933 13.9976 204.294L195.686 385.988C198.064 388.361 201.936 388.361 204.303 385.988L386.003 204.294C388.38 201.933 388.38 198.055 386.003 195.689Z" fill="#EC641A"/>
<path d="M231.278 321H259.96L259.293 126.63C259.293 126.63 274.635 130.832 278.036 131.699C281.437 132.566 287.64 128.697 283.772 123.628C279.903 118.559 245.152 71 245.152 71C245.152 71 209.734 120.626 207.666 123.628C205.599 126.63 206.733 133.5 212.002 132.099C217.271 130.699 231.278 126.63 231.278 126.63C231.278 126.63 236.214 174.255 203.331 199.469C170.448 224.682 169.366 222.588 155.907 243.217C143.374 262.426 142.7 284.781 142.7 284.781V321H170.581C170.581 321 169.781 279.244 175.25 267.572C180.719 255.899 187.656 244.426 195.994 238.489C204.331 232.553 209.485 230.32 217.338 224.015C223.062 219.42 231.278 211.408 231.278 211.408V321Z" fill="black" stroke="black" stroke-width="2"/>
</svg>
