<svg width="399" height="400" viewBox="0 0 399 400" fill="none" xmlns="http://www.w3.org/2000/svg">
<path d="M25.6786 398.323L21.2627 398.063L16.5867 396.504L12.1706 394.425L8.27369 391.047L4.89663 387.149L2.55864 382.732L1.26004 378.054L1 373.637V25.6865L1.26004 21.2687L2.55864 16.5915L4.89663 12.1739L8.27369 8.27603L12.1706 4.89788L16.5867 2.81902L18.9247 1.77932L21.2627 1.51972L23.6006 1H375.595L377.933 1.51972L380.271 1.77932L382.609 2.81902L387.025 4.89788L390.922 8.27603L394.299 12.1739L396.377 16.5915L397.156 18.9302L398.195 23.6077V375.715L397.156 380.393L396.377 382.732L394.299 387.149L390.922 391.047L387.025 394.425L382.609 396.504L377.933 398.063L373.517 398.323H25.6786Z" fill="white" stroke="black" stroke-width="1.5"/>
<path d="M25.9381 392.086V381.952H374.295L375.335 381.692L378.452 380.133L380.011 378.574L381.05 376.495L381.31 375.715L381.569 375.196V24.9069L381.05 22.8281L380.011 20.7495L378.452 19.1901L376.374 18.1506L374.295 17.6309H24.1197L23.3401 17.891L22.8206 18.1506L22.0415 18.4102L20.4826 19.4499L19.9631 19.9696L19.184 20.4893L18.6645 21.2687L18.1449 22.8281L17.6251 24.9069V375.196L17.8851 375.715L18.6645 378.054L19.184 378.834L19.9631 379.353L20.4826 379.873L22.0415 380.913L22.8206 381.172L23.6002 381.692L24.6393 381.952H25.6781V392.086L22.3013 391.827L18.9242 390.787L15.5472 389.228L12.4299 386.63L10.0919 383.771L8.533 380.393L7.49415 377.015L7.23438 373.636V25.6865L7.49415 22.3083L8.533 18.9302L10.0919 15.5518L12.4299 12.6933L15.5472 10.095L18.9242 8.53587L22.3013 7.49617L25.6781 7.23657H373.516L376.893 7.49617L380.271 8.53587L383.648 10.095L386.505 12.6933L388.843 15.5518L390.662 18.9302L391.701 22.3083L391.96 25.6865V373.636L391.701 377.015L390.662 380.393L388.843 383.771L386.505 386.63L383.648 389.228L380.271 390.787L376.893 391.827L373.516 392.086H25.9381Z" fill="black"/>
<rect x="225.504" y="214.824" width="11.3964" height="23.8288" rx="2" fill="black"/>
<rect x="300.098" y="214.824" width="11.3964" height="23.8288" rx="2" fill="black"/>
<rect x="211" y="225.184" width="12.4324" height="115" rx="2" transform="rotate(-90 211 225.184)" fill="black"/>
<rect x="214.109" y="214.824" width="21.7568" height="108.784" rx="2" transform="rotate(-90 214.109 214.824)" fill="black"/>
<rect x="224.469" y="214.824" width="49.7297" height="88.0631" rx="2" transform="rotate(-90 224.469 214.824)" fill="black"/>
<path d="M224.47 166.698L214.109 194.671H322.893L312.533 166.698L310.979 165.144L269.021 161L226.544 165.094L224.47 166.698Z" fill="black"/>
<path d="M228.613 194.103L232.239 168.202L305.28 168.202L309.424 194.103H228.613Z" fill="white"/>
<rect x="88.5039" y="214.824" width="11.3964" height="23.8288" rx="2" fill="black"/>
<rect x="163.098" y="214.824" width="11.3964" height="23.8288" rx="2" fill="black"/>
<rect x="74" y="225.184" width="12.4324" height="115" rx="2" transform="rotate(-90 74 225.184)" fill="black"/>
<rect x="77.1094" y="214.824" width="21.7568" height="108.784" rx="2" transform="rotate(-90 77.1094 214.824)" fill="black"/>
<rect x="87.4688" y="214.824" width="49.7297" height="88.0631" rx="2" transform="rotate(-90 87.4688 214.824)" fill="black"/>
<path d="M87.4698 166.698L77.1094 194.671H185.893L175.533 166.698L173.979 165.144L132.021 161L89.5437 165.094L87.4698 166.698Z" fill="black"/>
<path d="M91.6133 194.103L95.2394 168.202L168.28 168.202L172.424 194.103H91.6133Z" fill="white"/>
<path d="M370 200C370 293.888 293.888 370 200 370C106.112 370 30 293.888 30 200C30 106.112 106.112 30 200 30C293.888 30 370 106.112 370 200ZM66.0146 200C66.0146 273.998 126.002 333.985 200 333.985C273.998 333.985 333.985 273.998 333.985 200C333.985 126.002 273.998 66.0146 200 66.0146C126.002 66.0146 66.0146 126.002 66.0146 200Z" fill="#C31926"/>
<rect x="58.293" y="125.763" width="23.7452" height="301.684" transform="rotate(-45.6462 58.293 125.763)" fill="#C31926"/>
</svg>
