<svg width="399" height="400" viewBox="0 0 399 400" fill="none" xmlns="http://www.w3.org/2000/svg">
<path d="M25.6786 398.323L21.2627 398.063L16.5867 396.504L12.1706 394.425L8.27369 391.047L4.89663 387.149L2.55864 382.732L1.26004 378.054L1 373.637V25.6865L1.26004 21.2687L2.55864 16.5915L4.89663 12.1739L8.27369 8.27603L12.1706 4.89788L16.5867 2.81902L18.9247 1.77932L21.2627 1.51972L23.6006 1H375.595L377.933 1.51972L380.271 1.77932L382.609 2.81902L387.025 4.89788L390.922 8.27603L394.299 12.1739L396.377 16.5915L397.156 18.9302L398.195 23.6077V375.715L397.156 380.393L396.377 382.732L394.299 387.149L390.922 391.047L387.025 394.425L382.609 396.504L377.933 398.063L373.517 398.323H25.6786Z" fill="#EC641A" stroke="black" stroke-width="1.5"/>
<path d="M25.9381 392.086V381.952H374.295L375.335 381.692L378.452 380.133L380.011 378.574L381.05 376.495L381.31 375.715L381.569 375.196V24.9069L381.05 22.8281L380.011 20.7495L378.452 19.1901L376.374 18.1506L374.295 17.6309H24.1197L23.3401 17.891L22.8206 18.1506L22.0415 18.4102L20.4826 19.4499L19.9631 19.9696L19.184 20.4893L18.6645 21.2687L18.1449 22.8281L17.6251 24.9069V375.196L17.8851 375.715L18.6645 378.054L19.184 378.834L19.9631 379.353L20.4826 379.873L22.0415 380.913L22.8206 381.172L23.6002 381.692L24.6393 381.952H25.6781V392.086L22.3013 391.827L18.9242 390.787L15.5472 389.228L12.4299 386.63L10.0919 383.771L8.533 380.393L7.49415 377.015L7.23438 373.636V25.6865L7.49415 22.3083L8.533 18.9302L10.0919 15.5518L12.4299 12.6933L15.5472 10.095L18.9242 8.53587L22.3013 7.49617L25.6781 7.23657H373.516L376.893 7.49617L380.271 8.53587L383.648 10.095L386.505 12.6933L388.843 15.5518L390.662 18.9302L391.701 22.3083L391.96 25.6865V373.636L391.701 377.015L390.662 380.393L388.843 383.771L386.505 386.63L383.648 389.228L380.271 390.787L376.893 391.827L373.516 392.086H25.9381Z" fill="black"/>
<path fill-rule="evenodd" clip-rule="evenodd" d="M352 229.63H153.301L163.028 264.693C163.342 265.818 163.563 266.964 163.581 268.154C163.691 273.701 159.905 278.732 155.199 279.771C152.412 280.397 149.559 279.726 147.241 277.909L48 199.997L147.131 122.226C148.895 120.838 150.926 120.016 153.071 120.001C157.932 119.945 162.342 124.033 163.258 129.473C163.581 131.441 163.563 133.409 163.028 135.306L153.301 170.364H352V229.63Z" fill="black"/>
</svg>
