<svg width="400" height="53" viewBox="0 0 400 53" fill="none" xmlns="http://www.w3.org/2000/svg">
<path d="M8.69565 0H0V52.2899H8.69565V0Z" fill="#F39200"/>
<path d="M26.0866 0H8.69531V52.2899H26.0866V0Z" fill="white"/>
<path d="M49.2743 0H26.0859V52.2899H49.2743V0Z" fill="#F39200"/>
<path d="M66.6647 0H49.2734V52.2899H66.6647V0Z" fill="white"/>
<path d="M89.8564 0H66.668V52.2899H89.8564V0Z" fill="#F39200"/>
<path d="M107.247 0H89.8555V52.2899H107.247V0Z" fill="white"/>
<path d="M130.434 0H107.246V52.2899H130.434V0Z" fill="#F39200"/>
<path d="M147.825 0H130.434V52.2899H147.825V0Z" fill="white"/>
<path d="M171.013 0H147.824V52.2899H171.013V0Z" fill="#F39200"/>
<path d="M188.407 0H171.016V52.2899H188.407V0Z" fill="white"/>
<path d="M211.595 0H188.406V52.2899H211.595V0Z" fill="#F39200"/>
<path d="M228.985 0H211.594V52.2899H228.985V0Z" fill="white"/>
<path d="M252.173 0H228.984V52.2899H252.173V0Z" fill="#F39200"/>
<path d="M269.567 0H252.176V52.2899H269.567V0Z" fill="white"/>
<path d="M292.755 0H269.566V52.2899H292.755V0Z" fill="#F39200"/>
<path d="M310.145 0H292.754V52.2899H310.145V0Z" fill="white"/>
<path d="M333.333 0H310.145V52.2899H333.333V0Z" fill="#F39200"/>
<path d="M350.723 0H333.332V52.2899H350.723V0Z" fill="white"/>
<path d="M373.915 0H350.727V52.2899H373.915V0Z" fill="#F39200"/>
<path d="M391.305 0H373.914V52.2899H391.305V0Z" fill="white"/>
<path d="M400 0H391.305V52.2899H400V0Z" fill="#F39200"/>
</svg>
