<svg width="400" height="400" viewBox="0 0 400 400" fill="none" xmlns="http://www.w3.org/2000/svg">
<path d="M394.663 187.041L212.952 5.34149C205.819 -1.7805 194.169 -1.7805 187.041 5.34149L5.34149 187.041C-1.7805 194.163 -1.7805 205.819 5.34149 212.952L187.041 394.646C194.169 401.768 205.819 401.768 212.952 394.646L394.663 212.952C401.779 205.819 401.779 194.163 394.663 187.041Z" fill="#EC641A"/>
<path fill-rule="evenodd" clip-rule="evenodd" d="M391.202 190.499L209.491 8.80514C204.269 3.5831 195.72 3.5831 190.503 8.80514L8.80325 190.499C3.58121 195.722 3.58121 204.266 8.80325 209.488L190.503 391.188C195.72 396.41 204.269 396.41 209.491 391.188L391.202 209.488C396.419 204.266 396.419 195.722 391.202 190.499Z" fill="black"/>
<path fill-rule="evenodd" clip-rule="evenodd" d="M386.003 195.689L204.303 13.9889C201.936 11.6279 198.064 11.6279 195.686 13.9889L13.9976 195.689C11.631 198.055 11.631 201.933 13.9976 204.294L195.686 385.988C198.064 388.361 201.936 388.361 204.303 385.988L386.003 204.294C388.38 201.933 388.38 198.055 386.003 195.689Z" fill="#EC641A"/>
<circle cx="231" cy="120" r="15" fill="black"/>
<path d="M222.5 310.5C222.5 320 203.699 320 203.699 310.5V159.5C203.699 159.5 146.699 165 136.699 166C126.699 167 126.698 151 135.199 150C143.7 149 203.699 142 203.699 142L249.199 143L278.699 150.5C278.699 150.5 283.199 139.5 285.699 132C288.199 124.499 306.699 124.999 302.699 136.5C298.699 148 291.699 166.5 291.699 166.5C291.699 166.5 290.699 171.5 283.699 170C276.699 168.5 248.199 160 248.199 160V310.5C248.199 317.5 228.5 322 228.5 310.5C228.5 299 229 231.5 229 231.5H223C223 231.5 222.5 301 222.5 310.5Z" fill="black" stroke="black" stroke-width="2"/>
<path d="M132.021 92L118 106.059L118.072 125.894L132.045 140H152.003L166 125.894V106.106L151.931 92H132.021Z" fill="black"/>
<rect x="140" y="140" width="5" height="176" fill="black"/>
</svg>
