<svg width="400" height="400" viewBox="0 0 400 400" fill="none" xmlns="http://www.w3.org/2000/svg">
<path d="M394.663 187.041L212.952 5.34149C205.819 -1.7805 194.169 -1.7805 187.041 5.34149L5.34149 187.041C-1.7805 194.163 -1.7805 205.819 5.34149 212.952L187.041 394.646C194.169 401.768 205.819 401.768 212.952 394.646L394.663 212.952C401.779 205.819 401.779 194.163 394.663 187.041Z" fill="#EC641A"/>
<path fill-rule="evenodd" clip-rule="evenodd" d="M391.202 190.499L209.491 8.80514C204.269 3.5831 195.72 3.5831 190.503 8.80514L8.80325 190.499C3.58121 195.722 3.58121 204.266 8.80325 209.488L190.503 391.188C195.72 396.41 204.269 396.41 209.491 391.188L391.202 209.488C396.419 204.266 396.419 195.722 391.202 190.499Z" fill="black"/>
<path fill-rule="evenodd" clip-rule="evenodd" d="M386.003 195.689L204.303 13.9889C201.936 11.6279 198.064 11.6279 195.686 13.9889L13.9976 195.689C11.631 198.055 11.631 201.933 13.9976 204.294L195.686 385.988C198.064 388.361 201.936 388.361 204.303 385.988L386.003 204.294C388.38 201.933 388.38 198.055 386.003 195.689Z" fill="#EC641A"/>
<path d="M156.944 104.667C156.944 104.667 160.441 103.167 162.944 104.667C165.446 106.167 180.944 115.667 180.944 115.667C180.944 115.667 184.946 117.167 184.944 120.667C184.941 124.167 189.444 203.667 189.444 203.667L226.444 228.667C226.444 228.667 253.027 195.167 273.944 210.167C294.861 225.167 326.444 248.667 326.444 248.667L286.444 288.667C286.444 288.667 197.946 288.917 195.944 288.667C194.913 288.538 200.984 273.132 207.941 259.667C214.501 246.971 221.944 236.167 221.944 236.167L154.944 192.667C154.944 192.667 182.944 231.833 184.444 233.667C185.944 235.5 186.079 238 185.944 239.667C185.809 241.333 182.168 272.333 181.444 281.667C180.719 291 162.5 290.5 163.444 280.667C164.388 270.833 167.944 240.167 167.944 240.167L132.944 193.667C132.944 193.667 128.888 270.333 128.444 279.667C128 289 109.5 291 110.444 278.667C111.388 266.333 115.944 170.667 115.944 170.667L117.944 163.667L123.944 155.167L110.444 127.667C110.444 127.667 108.441 123.667 112.944 121.667C117.446 119.667 156.944 104.667 156.944 104.667Z" fill="black"/>
<path d="M149.5 119L131.5 145.5L124 130L149.5 119Z" fill="#EC641A"/>
<path d="M175 153.5L178 196.5L167.5 190C167.234 186.304 166.619 184.383 164 181.5L175 153.5Z" fill="#EC641A"/>
<circle cx="188" cy="95" r="17" fill="black"/>
</svg>
